<svg width="23" height="23" viewBox="0 0 23 23" fill="none" xmlns="http://www.w3.org/2000/svg">
<rect width="23" height="22.8628" rx="1" fill="#E8E7E7"/>
<path d="M3 16.8986H20V18.8807C20 19.433 19.5523 19.8807 19 19.8807H4C3.44772 19.8807 3 19.433 3 18.8807V16.8986Z" fill="#313131"/>
<path d="M3 3.98206C3 3.42977 3.44772 2.98206 4 2.98206H19C19.5523 2.98206 20 3.42977 20 3.98206V5.96416H3V3.98206Z" fill="#313131"/>
<rect x="3" y="5.05365" width="17" height="2.98211" fill="#313131"/>
<path d="M3 3.98206C3 3.42977 3.44772 2.98206 4 2.98206H6V19.8807H4C3.44772 19.8807 3 19.4329 3 18.8807V3.98206Z" fill="#313131"/>
<path d="M17 2.98206H19C19.5523 2.98206 20 3.42977 20 3.98206V18.8807C20 19.4329 19.5523 19.8807 19 19.8807H17V2.98206Z" fill="#313131"/>
</svg>
